<?xml version="1.0" encoding="utf-8"?>
<!-- Generator: Adobe Illustrator 27.5.0, SVG Export Plug-In . SVG Version: 6.00 Build 0)  -->
<svg version="1.1" xmlns="http://www.w3.org/2000/svg" xmlns:xlink="http://www.w3.org/1999/xlink" x="0px" y="0px"
	 viewBox="0 0 500 500.001" style="enable-background:new 0 0 500 500.001;" xml:space="preserve">
<g id="BACKGROUND">
	<!-- <rect width="500.001" height="500.001"/> -->
</g>
<g id="OBJECTS">
	<g>
		<g>
			<path style="fill:#D2DC3B;" d="M250.022,289.704l-0.021-0.082c-43.352-17.068-97.331-9.156-97.331-9.156l1.341,3.662
				c14.21,36.709,48.88,63.238,90.02,65.59c1.98,0.109,3.971,0.17,5.971,0.17c42.34,0,78.709-25.58,94.489-62.121h0.01
				c0.521-1.199,1.021-2.41,1.49-3.639c0.521-1.33,1.01-2.682,1.46-4.031C302.099,280.097,270.335,284.933,250.022,289.704z"/>
			<g>
				
					<path style="fill:none;stroke:#000000;stroke-width:2.6363;stroke-linecap:round;stroke-linejoin:round;stroke-miterlimit:10;" d="
					M152.67,280.466c0,0,53.979-7.912,97.331,9.156"/>
				
					<path style="fill:none;stroke:#000000;stroke-width:2.6363;stroke-linecap:round;stroke-linejoin:round;stroke-miterlimit:10;" d="
					M221.319,298.935c0,0,36.609-18.838,126.138-18.838"/>
				
					<path style="fill:none;stroke:#000000;stroke-width:2.6363;stroke-linecap:round;stroke-linejoin:round;stroke-miterlimit:10;" d="
					M154.011,284.13c0,0,39.204-0.262,94.468,26.363"/>
				
					<path style="fill:none;stroke:#000000;stroke-width:2.6363;stroke-linecap:round;stroke-linejoin:round;stroke-miterlimit:10;" d="
					M199.479,336.218c0,0,59.675-41.506,146.511-52.088"/>
				
					<path style="fill:none;stroke:#000000;stroke-width:2.6363;stroke-linecap:round;stroke-linejoin:round;stroke-miterlimit:10;" d="
					M155.872,287.771c0,0,25.784,6.119,67.298,34.635"/>
				
					<path style="fill:none;stroke:#000000;stroke-width:2.6363;stroke-linecap:round;stroke-linejoin:round;stroke-miterlimit:10;" d="
					M244.029,349.718c0,0,50.773-45.455,100.472-61.947"/>
			</g>
			<g>
				<g>
					<g>
						
							<line style="fill:none;stroke:#000000;stroke-width:0.531;stroke-linecap:round;stroke-linejoin:round;stroke-miterlimit:10;" x1="248.558" y1="270.538" x2="328.563" y2="270.538"/>
						
							<line style="fill:none;stroke:#000000;stroke-width:0.531;stroke-linecap:round;stroke-linejoin:round;stroke-miterlimit:10;" x1="248.558" y1="274.169" x2="328.563" y2="274.169"/>
						
							<line style="fill:none;stroke:#000000;stroke-width:0.531;stroke-linecap:round;stroke-linejoin:round;stroke-miterlimit:10;" x1="248.558" y1="277.798" x2="328.563" y2="277.798"/>
						
							<line style="fill:none;stroke:#000000;stroke-width:0.531;stroke-linecap:round;stroke-linejoin:round;stroke-miterlimit:10;" x1="248.558" y1="281.431" x2="295.888" y2="281.431"/>
						
							<line style="fill:none;stroke:#000000;stroke-width:0.531;stroke-linecap:round;stroke-linejoin:round;stroke-miterlimit:10;" x1="248.558" y1="285.062" x2="273.484" y2="285.062"/>
					</g>
					<g>
						
							<line style="fill:none;stroke:#000000;stroke-width:0.531;stroke-linecap:round;stroke-linejoin:round;stroke-miterlimit:10;" x1="248.558" y1="285.062" x2="235.4" y2="285.062"/>
						
							<line style="fill:none;stroke:#000000;stroke-width:0.531;stroke-linecap:round;stroke-linejoin:round;stroke-miterlimit:10;" x1="248.558" y1="281.431" x2="221.003" y2="281.431"/>
						
							<line style="fill:none;stroke:#000000;stroke-width:0.531;stroke-linecap:round;stroke-linejoin:round;stroke-miterlimit:10;" x1="248.558" y1="277.798" x2="187.479" y2="277.798"/>
						
							<line style="fill:none;stroke:#000000;stroke-width:0.531;stroke-linecap:round;stroke-linejoin:round;stroke-miterlimit:10;" x1="248.558" y1="274.169" x2="187.479" y2="274.169"/>
						
							<line style="fill:none;stroke:#000000;stroke-width:0.531;stroke-linecap:round;stroke-linejoin:round;stroke-miterlimit:10;" x1="248.558" y1="270.538" x2="187.479" y2="270.538"/>
						
							<line style="fill:none;stroke:#000000;stroke-width:0.531;stroke-linecap:round;stroke-linejoin:round;stroke-miterlimit:10;" x1="248.558" y1="266.907" x2="187.479" y2="266.907"/>
						
							<line style="fill:none;stroke:#000000;stroke-width:0.531;stroke-linecap:round;stroke-linejoin:round;stroke-miterlimit:10;" x1="243.552" y1="263.276" x2="187.479" y2="263.276"/>
						
							<line style="fill:none;stroke:#000000;stroke-width:0.531;stroke-linecap:round;stroke-linejoin:round;stroke-miterlimit:10;" x1="239.338" y1="259.646" x2="187.479" y2="259.646"/>
						
							<line style="fill:none;stroke:#000000;stroke-width:0.531;stroke-linecap:round;stroke-linejoin:round;stroke-miterlimit:10;" x1="235.32" y1="256.015" x2="214.646" y2="256.015"/>
						
							<line style="fill:none;stroke:#000000;stroke-width:0.531;stroke-linecap:round;stroke-linejoin:round;stroke-miterlimit:10;" x1="231.613" y1="252.384" x2="214.646" y2="252.384"/>
						
							<line style="fill:none;stroke:#000000;stroke-width:0.531;stroke-linecap:round;stroke-linejoin:round;stroke-miterlimit:10;" x1="228.089" y1="248.754" x2="214.646" y2="248.754"/>
						
							<line style="fill:none;stroke:#000000;stroke-width:0.531;stroke-linecap:round;stroke-linejoin:round;stroke-miterlimit:10;" x1="225.977" y1="245.123" x2="214.646" y2="245.123"/>
						
							<line style="fill:none;stroke:#000000;stroke-width:0.531;stroke-linecap:round;stroke-linejoin:round;stroke-miterlimit:10;" x1="223.887" y1="241.492" x2="214.646" y2="241.492"/>
						
							<line style="fill:none;stroke:#000000;stroke-width:0.531;stroke-linecap:round;stroke-linejoin:round;stroke-miterlimit:10;" x1="221.801" y1="237.861" x2="214.646" y2="237.861"/>
						
							<line style="fill:none;stroke:#000000;stroke-width:0.531;stroke-linecap:round;stroke-linejoin:round;stroke-miterlimit:10;" x1="219.827" y1="234.23" x2="196.342" y2="234.23"/>
						
							<line style="fill:none;stroke:#000000;stroke-width:0.531;stroke-linecap:round;stroke-linejoin:round;stroke-miterlimit:10;" x1="217.526" y1="230.6" x2="197.932" y2="230.6"/>
						
							<line style="fill:none;stroke:#000000;stroke-width:0.531;stroke-linecap:round;stroke-linejoin:round;stroke-miterlimit:10;" x1="215.414" y1="226.969" x2="199.947" y2="226.969"/>
						
							<line style="fill:none;stroke:#000000;stroke-width:0.531;stroke-linecap:round;stroke-linejoin:round;stroke-miterlimit:10;" x1="213.408" y1="223.338" x2="201.789" y2="223.338"/>
						
							<line style="fill:none;stroke:#000000;stroke-width:0.531;stroke-linecap:round;stroke-linejoin:round;stroke-miterlimit:10;" x1="211.4" y1="219.707" x2="203.347" y2="219.707"/>
						
							<line style="fill:none;stroke:#000000;stroke-width:0.531;stroke-linecap:round;stroke-linejoin:round;stroke-miterlimit:10;" x1="199.947" y1="256.015" x2="187.479" y2="256.015"/>
						
							<line style="fill:none;stroke:#000000;stroke-width:0.531;stroke-linecap:round;stroke-linejoin:round;stroke-miterlimit:10;" x1="199.947" y1="252.384" x2="187.479" y2="252.384"/>
						
							<line style="fill:none;stroke:#000000;stroke-width:0.531;stroke-linecap:round;stroke-linejoin:round;stroke-miterlimit:10;" x1="199.947" y1="248.754" x2="189.356" y2="248.754"/>
						
							<line style="fill:none;stroke:#000000;stroke-width:0.531;stroke-linecap:round;stroke-linejoin:round;stroke-miterlimit:10;" x1="199.947" y1="245.123" x2="191.016" y2="245.123"/>
						
							<line style="fill:none;stroke:#000000;stroke-width:0.531;stroke-linecap:round;stroke-linejoin:round;stroke-miterlimit:10;" x1="199.947" y1="241.492" x2="193.142" y2="241.492"/>
						
							<line style="fill:none;stroke:#000000;stroke-width:0.531;stroke-linecap:round;stroke-linejoin:round;stroke-miterlimit:10;" x1="199.947" y1="237.861" x2="194.687" y2="237.861"/>
					</g>
				</g>
				
					<polyline style="fill:none;stroke:#000000;stroke-width:2.1239;stroke-linecap:round;stroke-linejoin:round;stroke-miterlimit:10;" points="
					241.715,210.543 206.392,210.543 185.102,251.954 187.479,251.954 				"/>
				
					<polyline style="fill:none;stroke:#000000;stroke-width:2.1239;stroke-linecap:round;stroke-linejoin:round;stroke-miterlimit:10;" points="
					187.479,277.19 187.479,251.954 207.373,211.514 228.635,249.689 248.558,267.835 330.717,267.835 330.717,266.31 
					308.658,248.25 286.172,210.543 262.537,210.543 				"/>
				
					<line style="fill:none;stroke:#000000;stroke-width:2.1239;stroke-linecap:round;stroke-linejoin:round;stroke-miterlimit:10;" x1="229.549" y1="248.25" x2="308.658" y2="248.25"/>
				
					<polyline style="fill:none;stroke:#000000;stroke-width:2.1239;stroke-linecap:round;stroke-linejoin:round;stroke-miterlimit:10;" points="
					208.187,210.543 229.549,248.25 249.451,266.31 330.717,266.31 				"/>
				
					<line style="fill:none;stroke:#000000;stroke-width:2.1239;stroke-linecap:round;stroke-linejoin:round;stroke-miterlimit:10;" x1="248.558" y1="289.622" x2="248.558" y2="267.835"/>
				<path d="M214.646,280.337v-18.859h-14.698v16.777C199.947,278.255,207.903,279.526,214.646,280.337z"/>
				<rect x="205.091" y="219.517" width="3.096" height="13.604"/>
				
					<polyline style="fill:none;stroke:#000000;stroke-width:2.1239;stroke-linecap:round;stroke-linejoin:round;stroke-miterlimit:10;" points="
					233.343,210.543 233.343,204.985 239.517,199.428 256.259,199.428 262.537,204.985 262.537,222.761 249.771,222.761 
					241.715,210.543 				"/>
				
					<polyline style="fill:none;stroke:#000000;stroke-width:2.1239;stroke-linecap:round;stroke-linejoin:round;stroke-miterlimit:10;" points="
					249.771,222.761 249.771,204.985 255.84,199.428 				"/>
				<path d="M213.128,236.051h-11.664h-1.517v2.236v17.189v2.234h1.517h11.664h1.518v-2.234v-17.189v-2.236H213.128z
					 M211.687,238.175l-4.39,6.471l-4.392-6.471H211.687z M202.07,241.417l3.709,5.465l-3.709,5.465V241.417z M202.905,255.587
					l4.392-6.47l4.39,6.47H202.905z M212.521,252.347l-3.709-5.465l3.709-5.465V252.347z"/>
				
					<line style="fill:none;stroke:#000000;stroke-width:2.1239;stroke-linecap:round;stroke-linejoin:round;stroke-miterlimit:10;" x1="328.563" y1="267.835" x2="328.563" y2="278.728"/>
				
					<line style="fill:none;stroke:#000000;stroke-width:2.1239;stroke-linecap:round;stroke-linejoin:round;stroke-miterlimit:10;" x1="233.343" y1="204.985" x2="249.771" y2="204.985"/>
				<path d="M259.845,207.939h-6.614h-0.86v1.268v9.749v1.268h0.86h6.614h0.861v-1.268v-9.749v-1.268H259.845z M259.027,209.144
					l-2.49,3.669l-2.489-3.669H259.027z M253.575,210.982l2.103,3.1l-2.103,3.099V210.982z M254.048,219.019l2.489-3.67l2.49,3.67
					H254.048z M259.501,217.181l-2.104-3.099l2.104-3.1V217.181z"/>
			</g>
		</g>
		<path id="SVGID_x5F_1_x5F_" style="fill:none;" d="M379.411,246.993c0,71.475-57.94,129.412-129.411,129.412
			c-71.473,0-129.412-57.938-129.412-129.412c0-71.472,57.94-129.412,129.412-129.412
			C321.472,117.581,379.411,175.521,379.411,246.993z"/>
		<text>		<textPath  xlink:href="#SVGID_x5F_1_x5F_" startOffset="100%">
<tspan  style="font-family:'RozhaOne-Regular'; font-size:30.3174px; letter-spacing:50;">Farmer’s market</tspan>		</textPath>
</text>
		<g>
			
				<path style="fill:none;stroke:#000000;stroke-width:2.6363;stroke-linecap:round;stroke-linejoin:round;stroke-miterlimit:10;" d="
				M352.897,246.993c0,56.828-46.068,102.897-102.896,102.897c-56.829,0-102.898-46.068-102.898-102.897"/>
			
				<path style="fill:none;stroke:#000000;stroke-width:2.6363;stroke-linecap:round;stroke-linejoin:round;stroke-miterlimit:10;" d="
				M388.502,246.993c0,76.492-62.009,138.502-138.501,138.502c-76.493,0-138.503-62.01-138.503-138.502"/>
		</g>
		<g>
			<path d="M356.568,242.425c-0.027-1.513-0.209-3.021-0.308-4.534c-0.531-6.042-1.564-12.065-3.101-17.96
				c-3.112-11.782-8.303-22.993-15.102-32.849c-6.815-9.852-15.183-18.342-24.315-25.123c-9.2-6.698-19.093-11.752-28.965-15.023
				c-4.915-1.703-9.86-2.829-14.655-3.723c-1.204-0.197-2.398-0.392-3.582-0.586c-1.185-0.179-2.37-0.28-3.538-0.421
				c-2.32-0.313-4.68-0.384-6.955-0.538c-1.148-0.08-2.205-0.042-3.294-0.068c-0.539-0.004-1.075-0.007-1.608-0.011l-0.798-0.003
				l-0.199-0.001l-0.163-0.001l-0.102,0.005l-0.405,0.021c-2.155,0.114-4.261,0.226-6.313,0.334c-2.04,0.239-4.027,0.472-5.96,0.698
				c-0.968,0.089-1.907,0.287-2.836,0.456c-0.927,0.172-1.841,0.342-2.739,0.508c-7.163,1.454-13.27,3.325-18.105,5.323
				c-1.213,0.491-2.373,0.91-3.437,1.398c-1.058,0.506-2.049,0.982-2.971,1.423c-0.92,0.442-1.77,0.851-2.55,1.225
				c-0.74,0.412-1.413,0.787-2.016,1.122c-2.404,1.346-3.686,2.064-3.686,2.064c-0.605,0.34-0.849,1.099-0.54,1.73
				c0.32,0.654,1.109,0.925,1.764,0.605c0,0,1.32-0.645,3.796-1.856c0.619-0.301,1.311-0.637,2.071-1.006
				c0.767-0.315,1.602-0.66,2.507-1.032c0.901-0.372,1.87-0.771,2.903-1.198c1.045-0.403,2.192-0.766,3.38-1.192
				c4.744-1.737,10.706-3.291,17.626-4.399c0.868-0.124,1.75-0.25,2.645-0.378c0.895-0.125,1.8-0.28,2.731-0.325
				c1.855-0.14,3.763-0.284,5.721-0.431c1.962-0.022,3.975-0.045,6.034-0.068l0.387-0.005l0.074,0c0.02,0,0.055,0.002,0.058,0.002
				l0.198,0.009l0.797,0.037c0.533,0.023,1.068,0.047,1.607,0.071c1.065,0.058,2.194,0.055,3.241,0.164
				c2.116,0.216,4.258,0.335,6.476,0.703c1.104,0.167,2.224,0.294,3.341,0.498c1.115,0.217,2.24,0.436,3.374,0.657
				c4.514,0.978,9.14,2.196,13.732,3.914c9.234,3.281,18.422,8.237,26.903,14.692c8.438,6.505,16.176,14.515,22.403,23.791
				c6.179,9.293,10.991,19.709,13.834,30.676c2.79,10.983,3.766,22.372,2.819,33.55c-0.451,5.486-1.345,11.008-2.668,16.295
				c-1.361,5.293-3.149,10.398-5.224,15.287c-2.067,4.897-4.552,9.518-7.3,13.838c-2.744,4.324-5.726,8.375-8.931,12.064
				c-6.36,7.428-13.474,13.496-20.589,18.252c-3.526,2.441-7.137,4.418-10.594,6.254c-1.772,0.824-3.474,1.695-5.178,2.428
				c-1.717,0.699-3.347,1.49-5.003,2.051c-6.548,2.471-12.503,3.975-17.459,4.93c-4.971,0.883-8.932,1.334-11.641,1.537
				c-2.715,0.172-4.162,0.262-4.162,0.262l-0.073,0.006c-0.68,0.043-1.222,0.605-1.23,1.299c-0.008,0.728,0.575,1.324,1.303,1.332
				c0,0,1.489,0.018,4.281,0.049c2.794-0.002,6.901-0.148,12.104-0.771c5.196-0.65,11.475-1.889,18.455-4.137
				c1.766-0.504,3.512-1.24,5.353-1.885c1.83-0.676,3.646-1.531,5.549-2.326c3.713-1.781,7.604-3.721,11.434-6.148
				c1.956-1.148,3.845-2.488,5.791-3.824c0.966-0.678,1.893-1.426,2.854-2.148c0.962-0.721,1.921-1.465,2.844-2.27
				c3.809-3.08,7.438-6.635,10.965-10.469c3.551-3.82,6.785-8.119,9.809-12.688c3.02-4.574,5.768-9.483,8.08-14.699
				c2.347-5.199,4.268-10.695,5.77-16.377c1.459-5.709,2.448-11.543,2.978-17.58l0.178-2.283c0.065-0.77,0.117-1.527,0.124-2.238
				c0.041-1.482,0.081-2.968,0.122-4.456C356.65,245.448,356.609,243.938,356.568,242.425z"/>
			<g>
				<path d="M218.122,155.928c-0.069-0.443-0.134-0.705-0.134-0.705s-0.268-0.034-0.717-0.05c-0.431-0.001-1.124-0.056-1.883-0.016
					c-0.779,0.021-1.673,0.094-2.649,0.221c-0.973,0.13-2.011,0.33-3.085,0.599c-2.147,0.54-4.37,1.42-6.434,2.646
					c-2.075,1.216-3.961,2.804-5.584,4.625c-1.607,1.836-2.957,3.899-3.917,6.106c-0.97,2.197-1.583,4.508-1.867,6.702
					c-0.143,1.097-0.221,2.149-0.236,3.13c-0.014,0.982,0.018,1.876,0.086,2.651c0.048,0.756,0.183,1.437,0.231,1.863
					c0.067,0.442,0.132,0.703,0.132,0.703s0.267,0.033,0.713,0.048c0.429-0.002,1.121,0.052,1.878,0.01
					c0.777-0.023,1.669-0.097,2.643-0.227c0.972-0.131,2.008-0.332,3.08-0.603c2.145-0.541,4.367-1.422,6.436-2.644
					c2.079-1.213,3.968-2.797,5.602-4.609c1.617-1.827,2.973-3.886,3.936-6.089c0.974-2.194,1.586-4.505,1.87-6.701
					c0.14-1.099,0.216-2.153,0.23-3.134c0.011-0.984-0.021-1.88-0.093-2.657C218.31,157.038,218.173,156.356,218.122,155.928z"/>
				<path d="M196.038,150.662c0.744-0.619,1.395-1.215,1.934-1.765c0.537-0.522,0.964-1.062,1.253-1.374
					c0.29-0.335,0.445-0.552,0.445-0.552c0-0.001-0.14-0.229-0.404-0.584c-0.266-0.332-0.652-0.901-1.151-1.46
					c-0.497-0.587-1.104-1.229-1.801-1.9c-0.698-0.667-1.488-1.339-2.354-1.996c-1.729-1.31-3.762-2.461-5.954-3.269
					c-2.191-0.823-4.546-1.263-6.912-1.352c-2.367-0.067-4.747,0.208-6.992,0.876c-2.245,0.654-4.354,1.655-6.175,2.835
					c-0.909,0.589-1.746,1.201-2.49,1.813c-0.744,0.615-1.395,1.21-1.933,1.756c-0.537,0.518-0.964,1.057-1.253,1.366
					c-0.29,0.334-0.445,0.549-0.445,0.549s0.14,0.226,0.404,0.58c0.267,0.329,0.653,0.897,1.151,1.453
					c0.497,0.585,1.103,1.224,1.802,1.891c0.698,0.665,1.488,1.335,2.354,1.988c1.729,1.308,3.762,2.458,5.954,3.271
					c2.191,0.828,4.545,1.273,6.911,1.377c2.366,0.081,4.746-0.188,6.991-0.851c2.245-0.648,4.355-1.65,6.175-2.832
					C194.457,151.89,195.294,151.277,196.038,150.662z"/>
				<path d="M194.238,128.078c0.359,0.679,0.813,1.435,1.351,2.238c0.538,0.801,1.166,1.627,1.87,2.454
					c1.407,1.654,3.145,3.219,5.112,4.491c1.963,1.286,4.168,2.233,6.46,2.85c2.297,0.595,4.683,0.851,7.022,0.692
					c2.337-0.143,4.617-0.662,6.654-1.418c1.018-0.38,1.97-0.796,2.832-1.234c0.862-0.442,1.628-0.882,2.274-1.302
					c0.639-0.393,1.173-0.827,1.523-1.068c0.357-0.264,0.557-0.442,0.557-0.442c0-0.001-0.088-0.253-0.27-0.658
					c-0.188-0.382-0.442-1.022-0.808-1.677c-0.358-0.681-0.813-1.44-1.349-2.247c-0.538-0.804-1.165-1.631-1.868-2.461
					c-1.407-1.655-3.144-3.221-5.113-4.488c-1.965-1.281-4.171-2.223-6.466-2.826c-2.301-0.581-4.688-0.832-7.029-0.669
					c-2.338,0.149-4.618,0.666-6.654,1.421c-1.018,0.377-1.97,0.792-2.83,1.228c-0.862,0.438-1.628,0.876-2.272,1.293
					c-0.638,0.389-1.173,0.821-1.523,1.061c-0.355,0.263-0.555,0.439-0.555,0.439s0.088,0.251,0.27,0.654
					C193.616,126.789,193.871,127.427,194.238,128.078z"/>
				<path d="M231.007,121.049c0.277,0.707,0.638,1.5,1.075,2.347c0.438,0.845,0.96,1.723,1.557,2.608
					c1.192,1.771,2.715,3.485,4.492,4.929c1.772,1.458,3.815,2.601,5.977,3.424c2.17,0.803,4.462,1.276,6.754,1.335
					c2.287,0.073,4.559-0.231,6.62-0.795c1.031-0.284,2.001-0.609,2.885-0.965c0.886-0.359,1.678-0.726,2.35-1.083
					c0.663-0.331,1.23-0.712,1.596-0.921c0.375-0.229,0.588-0.388,0.588-0.388s-0.058-0.259-0.191-0.678
					c-0.142-0.396-0.321-1.055-0.608-1.739c-0.275-0.709-0.636-1.504-1.072-2.355c-0.437-0.847-0.958-1.726-1.554-2.615
					c-1.191-1.773-2.714-3.488-4.493-4.927c-1.773-1.452-3.818-2.591-5.985-3.401c-2.175-0.789-4.469-1.258-6.763-1.312
					c-2.288-0.067-4.561,0.236-6.621,0.798c-1.029,0.28-1.998,0.604-2.882,0.958c-0.885,0.355-1.676,0.72-2.347,1.074
					c-0.662,0.328-1.227,0.708-1.593,0.913c-0.374,0.228-0.587,0.384-0.587,0.385c0,0,0.059,0.257,0.193,0.674
					C230.54,119.712,230.72,120.369,231.007,121.049z"/>
				<path d="M267.241,118.605c0.063,0.805,0.185,1.729,0.37,2.74c0.186,1.008,0.448,2.086,0.785,3.203
					c0.674,2.234,1.706,4.557,3.087,6.73c1.371,2.184,3.122,4.181,5.096,5.921c1.989,1.723,4.209,3.182,6.559,4.239
					c2.341,1.068,4.785,1.766,7.093,2.12c1.155,0.175,2.26,0.284,3.285,0.325c1.029,0.038,1.963,0.03,2.771-0.022
					c0.789-0.031,1.495-0.153,1.939-0.194c0.459-0.059,0.729-0.119,0.729-0.119s0.022-0.276,0.016-0.739
					c-0.022-0.446,0.001-1.161-0.078-1.947c-0.061-0.807-0.183-1.733-0.364-2.746c-0.185-1.01-0.446-2.089-0.781-3.208
					c-0.672-2.235-1.704-4.559-3.088-6.728c-1.375-2.179-3.129-4.173-5.112-5.903c-1.999-1.712-4.222-3.167-6.575-4.22
					c-2.344-1.064-4.788-1.762-7.094-2.117c-1.153-0.178-2.257-0.288-3.281-0.331c-1.026-0.042-1.959-0.035-2.765,0.015
					c-0.787,0.028-1.491,0.149-1.934,0.188c-0.458,0.058-0.728,0.116-0.728,0.116s-0.021,0.274-0.014,0.737
					C267.181,117.108,267.159,117.822,267.241,118.605z"/>
				<path d="M304.862,146.362c1.137,2.203,2.586,4.245,4.31,5.972c1.71,1.734,3.659,3.17,5.618,4.254
					c0.98,0.54,1.941,1.005,2.857,1.383c0.92,0.376,1.771,0.679,2.525,0.901c0.729,0.235,1.417,0.36,1.837,0.471
					c0.44,0.1,0.709,0.136,0.709,0.136s0.127-0.24,0.302-0.656c0.154-0.406,0.453-1.038,0.686-1.768
					c0.258-0.742,0.508-1.611,0.736-2.578c0.226-0.965,0.407-2.016,0.539-3.129c0.259-2.223,0.225-4.645-0.189-7.045
					c-0.4-2.407-1.218-4.773-2.348-6.98c-1.15-2.196-2.603-4.236-4.331-5.961c-1.716-1.731-3.664-3.169-5.621-4.253
					c-0.978-0.542-1.938-1.007-2.852-1.387c-0.915-0.378-1.766-0.682-2.517-0.905c-0.725-0.237-1.413-0.363-1.83-0.475
					c-0.438-0.101-0.706-0.138-0.706-0.138s-0.126,0.239-0.299,0.654c-0.151,0.405-0.449,1.037-0.679,1.764
					c-0.256,0.741-0.504,1.609-0.729,2.574c-0.223,0.964-0.404,2.015-0.532,3.125c-0.257,2.223-0.223,4.644,0.186,7.046
					C302.933,141.78,303.746,144.149,304.862,146.362z"/>
				<path d="M334.377,172.22c1.184,2.285,2.678,4.342,4.275,6.043c0.802,0.851,1.603,1.617,2.386,2.283
					c0.786,0.665,1.526,1.234,2.194,1.691c0.641,0.463,1.272,0.802,1.647,1.044c0.397,0.237,0.647,0.356,0.647,0.356
					s0.188-0.204,0.469-0.572c0.258-0.364,0.717-0.913,1.139-1.581c0.449-0.673,0.925-1.477,1.407-2.387
					c0.478-0.909,0.937-1.919,1.363-3.007c0.85-2.175,1.471-4.64,1.719-7.201c0.262-2.563,0.111-5.215-0.384-7.8
					c-0.518-2.581-1.37-5.097-2.573-7.377c-1.188-2.283-2.682-4.34-4.278-6.043c-0.798-0.851-1.599-1.618-2.379-2.284
					c-0.781-0.666-1.521-1.235-2.185-1.693c-0.637-0.463-1.266-0.802-1.638-1.044c-0.396-0.238-0.645-0.357-0.645-0.357
					s-0.186,0.204-0.465,0.571c-0.256,0.364-0.713,0.913-1.132,1.58c-0.446,0.672-0.92,1.476-1.397,2.385
					c-0.476,0.909-0.934,1.919-1.357,3.006c-0.848,2.174-1.467,4.639-1.721,7.201c-0.267,2.565-0.121,5.217,0.359,7.805
					C332.331,167.422,333.179,169.939,334.377,172.22z"/>
				<path d="M298.346,189.389c-2.086,1.162-3.958,2.629-5.499,4.203c-0.771,0.786-1.464,1.577-2.064,2.348
					c-0.6,0.772-1.111,1.503-1.521,2.162c-0.416,0.63-0.717,1.254-0.934,1.622c-0.212,0.393-0.317,0.639-0.317,0.639
					c0,0.001,0.191,0.188,0.537,0.47c0.341,0.258,0.857,0.72,1.482,1.145c0.63,0.452,1.381,0.933,2.23,1.418
					c0.849,0.484,1.79,0.951,2.803,1.385c2.024,0.868,4.313,1.511,6.686,1.79c2.374,0.294,4.822,0.175,7.203-0.277
					c2.377-0.475,4.686-1.294,6.771-2.464c2.087-1.156,3.959-2.625,5.5-4.2c0.77-0.79,1.462-1.582,2.063-2.355
					c0.599-0.777,1.11-1.509,1.52-2.17c0.415-0.634,0.716-1.259,0.933-1.63c0.211-0.394,0.316-0.642,0.316-0.642
					s-0.191-0.189-0.537-0.473c-0.342-0.261-0.858-0.724-1.483-1.152c-0.631-0.455-1.383-0.938-2.232-1.427
					c-0.849-0.486-1.791-0.955-2.804-1.392c-2.025-0.87-4.315-1.514-6.686-1.788c-2.373-0.288-4.82-0.165-7.198,0.301
					C302.737,187.39,300.43,188.213,298.346,189.389z"/>
				<path d="M303.684,170.562c-0.715-0.303-1.553-0.605-2.488-0.893c-0.934-0.284-1.954-0.53-3.036-0.73
					c-2.162-0.395-4.53-0.512-6.892-0.25c-2.369,0.249-4.717,0.914-6.92,1.899c-2.194,1.006-4.249,2.323-6.007,3.933
					c-1.764,1.597-3.249,3.444-4.391,5.321c-0.571,0.938-1.065,1.863-1.475,2.748c-0.408,0.886-0.74,1.712-0.99,2.445
					c-0.261,0.706-0.413,1.381-0.54,1.789c-0.117,0.43-0.164,0.693-0.164,0.693c0,0,0.228,0.14,0.627,0.338
					c0.389,0.175,0.994,0.51,1.696,0.784c0.714,0.3,1.552,0.601,2.485,0.884c0.933,0.282,1.952,0.527,3.032,0.723
					c2.162,0.394,4.529,0.51,6.895,0.253c2.371-0.244,4.721-0.905,6.93-1.877c2.2-0.993,4.257-2.305,6.017-3.911
					c1.766-1.592,3.252-3.439,4.392-5.318c0.569-0.941,1.064-1.867,1.471-2.754c0.407-0.89,0.738-1.718,0.986-2.453
					c0.261-0.71,0.411-1.386,0.537-1.796c0.116-0.432,0.163-0.696,0.163-0.696s-0.228-0.141-0.629-0.341
					C304.993,171.175,304.388,170.839,303.684,170.562z"/>
				<path d="M278.13,157.9c-0.734-0.201-1.586-0.384-2.527-0.541c-0.94-0.153-1.956-0.257-3.023-0.308
					c-2.132-0.098-4.412,0.104-6.623,0.677c-2.22,0.56-4.347,1.524-6.282,2.783c-1.924,1.277-3.661,2.84-5.064,4.65
					c-1.412,1.798-2.516,3.803-3.286,5.791c-0.385,0.994-0.699,1.965-0.939,2.885c-0.239,0.921-0.415,1.773-0.529,2.523
					c-0.129,0.726-0.159,1.407-0.211,1.822c-0.039,0.436-0.039,0.7-0.039,0.7s0.242,0.106,0.656,0.247
					c0.401,0.12,1.036,0.366,1.753,0.541c0.732,0.198,1.583,0.38,2.522,0.533c0.939,0.151,1.954,0.254,3.019,0.302
					c2.131,0.096,4.41-0.106,6.624-0.674c2.223-0.556,4.353-1.516,6.297-2.762c1.931-1.265,3.671-2.824,5.077-4.629
					c1.415-1.793,2.518-3.799,3.287-5.789c0.384-0.997,0.697-1.969,0.936-2.891c0.236-0.925,0.412-1.779,0.523-2.531
					c0.128-0.729,0.157-1.411,0.207-1.829c0.038-0.438,0.037-0.703,0.037-0.703s-0.242-0.107-0.658-0.249
					C279.484,158.324,278.849,158.077,278.13,157.9z"/>
				<path d="M249.186,153.17c0.001-0.998-0.042-1.906-0.122-2.691c-0.059-0.767-0.203-1.454-0.26-1.885
					c-0.074-0.447-0.143-0.71-0.143-0.71s-0.271-0.025-0.725-0.025c-0.436,0.015-1.136-0.017-1.902,0.05
					c-0.788,0.049-1.689,0.155-2.675,0.318c-0.982,0.166-2.028,0.405-3.111,0.715c-2.163,0.624-4.4,1.594-6.472,2.91
					c-2.084,1.306-3.972,2.982-5.593,4.886c-1.602,1.918-2.946,4.057-3.892,6.329c-0.956,2.262-1.552,4.627-1.815,6.861
					c-0.133,1.117-0.199,2.188-0.205,3.182c-0.004,0.996,0.037,1.901,0.115,2.685c0.056,0.765,0.2,1.45,0.254,1.88
					c0.073,0.446,0.141,0.708,0.141,0.708s0.27,0.024,0.722,0.023c0.433-0.017,1.133,0.014,1.896-0.055
					c0.785-0.051,1.686-0.158,2.667-0.324c0.98-0.167,2.025-0.408,3.106-0.72c2.162-0.624,4.398-1.596,6.475-2.908
					c2.087-1.303,3.979-2.977,5.61-4.871c1.614-1.909,2.961-4.044,3.911-6.313c0.96-2.259,1.555-4.623,1.817-6.86
					C249.116,155.237,249.182,154.166,249.186,153.17z"/>
			</g>
		</g>
	</g>
</g>
</svg>
